<svg xmlns="http://www.w3.org/2000/svg" viewBox="0 0 1060 690" font-family="Segoe UI, Arial">
<defs><marker id="arr" markerWidth="9" markerHeight="9" refX="7" refY="4.5" orient="auto"><path d="M0,0 L9,4.5 L0,9 Z" fill="#1E5F4F"/></marker><marker id="arrm" markerWidth="9" markerHeight="9" refX="7" refY="4.5" orient="auto"><path d="M0,0 L9,4.5 L0,9 Z" fill="#2FBF93"/></marker></defs>
<rect x="0" y="0" width="1060" height="690" rx="0" fill="#F4F8F6" opacity="1"/>
<text x="34" y="46" font-family="Segoe UI, Arial" font-size="27" font-weight="bold" fill="#1E5F4F" text-anchor="start" letter-spacing="0">Rastro</text>
<text x="150" y="46" font-family="Segoe UI, Arial" font-size="17" font-weight="normal" fill="#16241F" text-anchor="start" letter-spacing="0">— camada de inteligência sobre cada entrega</text>
<text x="34" y="70" font-family="Segoe UI, Arial" font-size="12.5" font-weight="normal" fill="#5C6F69" text-anchor="start" letter-spacing="0">Transforma dado de custódia em operação enxuta + dossiê de compliance/ESG vendável</text>
<rect x="24" y="92" width="232" height="26" rx="7" fill="#1E5F4F" opacity="1"/>
<text x="140.0" y="109" font-family="Segoe UI, Arial" font-size="12" font-weight="bold" fill="#FFFFFF" text-anchor="middle" letter-spacing="0.5">1 · FONTES</text>
<rect x="286" y="92" width="196" height="26" rx="7" fill="#1E5F4F" opacity="1"/>
<text x="384.0" y="109" font-family="Segoe UI, Arial" font-size="12" font-weight="bold" fill="#FFFFFF" text-anchor="middle" letter-spacing="0.5">2 · DADOS</text>
<rect x="512" y="92" width="300" height="26" rx="7" fill="#1E5F4F" opacity="1"/>
<text x="662.0" y="109" font-family="Segoe UI, Arial" font-size="12" font-weight="bold" fill="#FFFFFF" text-anchor="middle" letter-spacing="0.5">3 · IA — RASTRO</text>
<rect x="842" y="92" width="194" height="26" rx="7" fill="#1E5F4F" opacity="1"/>
<text x="939.0" y="109" font-family="Segoe UI, Arial" font-size="12" font-weight="bold" fill="#FFFFFF" text-anchor="middle" letter-spacing="0.5">4 · SAÍDAS</text>
<rect x="30" y="140" width="220" height="62" rx="10" fill="#FFFFFF" stroke="#C9D9D3" stroke-width="1.4" opacity="1"/>
<rect x="30" y="140" width="5" height="62" rx="0" fill="#1E5F4F" opacity="1"/>
<text x="46" y="164" font-family="Segoe UI, Arial" font-size="12.5" font-weight="bold" fill="#16241F" text-anchor="start" letter-spacing="0">App do Motorista</text>
<text x="46" y="182" font-family="Segoe UI, Arial" font-size="9.7" font-weight="normal" fill="#5C6F69" text-anchor="start" letter-spacing="0">POD: foto · GPS · assinatura · hora</text>
<rect x="30" y="224" width="220" height="62" rx="10" fill="#FFFFFF" stroke="#C9D9D3" stroke-width="1.4" opacity="1"/>
<rect x="30" y="224" width="5" height="62" rx="0" fill="#1E5F4F" opacity="1"/>
<text x="46" y="248" font-family="Segoe UI, Arial" font-size="12.5" font-weight="bold" fill="#16241F" text-anchor="start" letter-spacing="0">Data logger (BLE)</text>
<text x="46" y="266" font-family="Segoe UI, Arial" font-size="9.7" font-weight="normal" fill="#5C6F69" text-anchor="start" letter-spacing="0">Temperatura e umidade em rota</text>
<rect x="30" y="308" width="220" height="62" rx="10" fill="#FFFFFF" stroke="#C9D9D3" stroke-width="1.4" opacity="1"/>
<rect x="30" y="308" width="5" height="62" rx="0" fill="#1E5F4F" opacity="1"/>
<text x="46" y="332" font-family="Segoe UI, Arial" font-size="12.5" font-weight="bold" fill="#16241F" text-anchor="start" letter-spacing="0">Pedidos do Cliente</text>
<text x="46" y="350" font-family="Segoe UI, Arial" font-size="9.7" font-weight="normal" fill="#5C6F69" text-anchor="start" letter-spacing="0">Endereço · SLA · janela (CSV/API)</text>
<rect x="30" y="392" width="220" height="62" rx="10" fill="#FFFFFF" stroke="#C9D9D3" stroke-width="1.4" opacity="1"/>
<rect x="30" y="392" width="5" height="62" rx="0" fill="#1E5F4F" opacity="1"/>
<text x="46" y="416" font-family="Segoe UI, Arial" font-size="12.5" font-weight="bold" fill="#16241F" text-anchor="start" letter-spacing="0">GPS do veículo</text>
<text x="46" y="434" font-family="Segoe UI, Arial" font-size="9.7" font-weight="normal" fill="#5C6F69" text-anchor="start" letter-spacing="0">Telemetria de posição</text>
<rect x="292" y="200" width="184" height="90" rx="10" fill="#FFFFFF" stroke="#C9D9D3" stroke-width="1.4" opacity="1"/>
<rect x="292" y="200" width="5" height="90" rx="0" fill="#0E2A26" opacity="1"/>
<text x="308" y="224" font-family="Segoe UI, Arial" font-size="12.5" font-weight="bold" fill="#16241F" text-anchor="start" letter-spacing="0">Postgres</text>
<text x="308" y="242" font-family="Segoe UI, Arial" font-size="9.7" font-weight="normal" fill="#5C6F69" text-anchor="start" letter-spacing="0">Custódia: entregas, eventos, série de temp.</text>
<rect x="292" y="300" width="184" height="70" rx="10" fill="#FFFFFF" stroke="#C9D9D3" stroke-width="1.4" opacity="1"/>
<rect x="292" y="300" width="5" height="70" rx="0" fill="#0E2A26" opacity="1"/>
<text x="308" y="324" font-family="Segoe UI, Arial" font-size="12.5" font-weight="bold" fill="#16241F" text-anchor="start" letter-spacing="0">Object Storage</text>
<text x="308" y="342" font-family="Segoe UI, Arial" font-size="9.7" font-weight="normal" fill="#5C6F69" text-anchor="start" letter-spacing="0">Fotos / PODs / dossiês</text>
<text x="384.0" y="470" font-family="Segoe UI, Arial" font-size="10" font-weight="normal" fill="#5C6F69" text-anchor="middle" letter-spacing="0">Fonte única de verdade</text>
<text x="384.0" y="486" font-family="Segoe UI, Arial" font-size="10" font-weight="normal" fill="#5C6F69" text-anchor="middle" letter-spacing="0">por entrega</text>
<rect x="518" y="130" width="288" height="50" rx="10" fill="#FFFFFF" stroke="#C9D9D3" stroke-width="1.4" opacity="1"/>
<rect x="518" y="130" width="5" height="50" rx="0" fill="#2FBF93" opacity="1"/>
<text x="534" y="154" font-family="Segoe UI, Arial" font-size="12.5" font-weight="bold" fill="#16241F" text-anchor="start" letter-spacing="0">Address Intelligence</text>
<text x="534" y="172" font-family="Segoe UI, Arial" font-size="9.7" font-weight="normal" fill="#5C6F69" text-anchor="start" letter-spacing="0">Normaliza endereço + geocoding (LLM)</text>
<rect x="518" y="186" width="288" height="50" rx="10" fill="#FFFFFF" stroke="#C9D9D3" stroke-width="1.4" opacity="1"/>
<rect x="518" y="186" width="5" height="50" rx="0" fill="#2FBF93" opacity="1"/>
<text x="534" y="210" font-family="Segoe UI, Arial" font-size="12.5" font-weight="bold" fill="#16241F" text-anchor="start" letter-spacing="0">Comms Agent — WhatsApp</text>
<text x="534" y="228" font-family="Segoe UI, Arial" font-size="9.7" font-weight="normal" fill="#5C6F69" text-anchor="start" letter-spacing="0">Confirma janela · ETA · reagenda</text>
<rect x="518" y="242" width="288" height="50" rx="10" fill="#FFFFFF" stroke="#C9D9D3" stroke-width="1.4" opacity="1"/>
<rect x="518" y="242" width="5" height="50" rx="0" fill="#2FBF93" opacity="1"/>
<text x="534" y="266" font-family="Segoe UI, Arial" font-size="12.5" font-weight="bold" fill="#16241F" text-anchor="start" letter-spacing="0">Cold-Chain Guard</text>
<text x="534" y="284" font-family="Segoe UI, Arial" font-size="9.7" font-weight="normal" fill="#5C6F69" text-anchor="start" letter-spacing="0">Prevê excursão térmica e alerta</text>
<rect x="518" y="298" width="288" height="50" rx="10" fill="#FFFFFF" stroke="#C9D9D3" stroke-width="1.4" opacity="1"/>
<rect x="518" y="298" width="5" height="50" rx="0" fill="#1E5F4F" opacity="1"/>
<text x="534" y="322" font-family="Segoe UI, Arial" font-size="12.5" font-weight="bold" fill="#16241F" text-anchor="start" letter-spacing="0">POD Vision</text>
<text x="534" y="340" font-family="Segoe UI, Arial" font-size="9.7" font-weight="normal" fill="#5C6F69" text-anchor="start" letter-spacing="0">OCR etiqueta + detecção de avaria</text>
<rect x="736" y="306" width="62" height="17" rx="8" fill="#FBEFE1" stroke="#E08A3C" stroke-width="1" opacity="1"/>
<text x="767" y="318" font-family="Segoe UI, Arial" font-size="8.5" font-weight="bold" fill="#E08A3C" text-anchor="middle" letter-spacing="0">Fase 2</text>
<rect x="518" y="354" width="288" height="50" rx="10" fill="#FFFFFF" stroke="#C9D9D3" stroke-width="1.4" opacity="1"/>
<rect x="518" y="354" width="5" height="50" rx="0" fill="#1E5F4F" opacity="1"/>
<text x="534" y="378" font-family="Segoe UI, Arial" font-size="12.5" font-weight="bold" fill="#16241F" text-anchor="start" letter-spacing="0">ETA / Failure Predictor</text>
<text x="534" y="396" font-family="Segoe UI, Arial" font-size="9.7" font-weight="normal" fill="#5C6F69" text-anchor="start" letter-spacing="0">Risco de falha (treino histórico)</text>
<rect x="736" y="362" width="62" height="17" rx="8" fill="#FBEFE1" stroke="#E08A3C" stroke-width="1" opacity="1"/>
<text x="767" y="374" font-family="Segoe UI, Arial" font-size="8.5" font-weight="bold" fill="#E08A3C" text-anchor="middle" letter-spacing="0">Fase 2</text>
<rect x="518" y="410" width="288" height="50" rx="10" fill="#FFFFFF" stroke="#C9D9D3" stroke-width="1.4" opacity="1"/>
<rect x="518" y="410" width="5" height="50" rx="0" fill="#2FBF93" opacity="1"/>
<text x="534" y="434" font-family="Segoe UI, Arial" font-size="12.5" font-weight="bold" fill="#16241F" text-anchor="start" letter-spacing="0">Dossiê Generator</text>
<text x="534" y="452" font-family="Segoe UI, Arial" font-size="9.7" font-weight="normal" fill="#5C6F69" text-anchor="start" letter-spacing="0">Relatório RDC 430 + ESG (LLM)</text>
<rect x="846" y="150" width="190" height="62" rx="10" fill="#FFFFFF" stroke="#C9D9D3" stroke-width="1.4" opacity="1"/>
<rect x="846" y="150" width="5" height="62" rx="0" fill="#1E5F4F" opacity="1"/>
<text x="862" y="174" font-family="Segoe UI, Arial" font-size="12.5" font-weight="bold" fill="#16241F" text-anchor="start" letter-spacing="0">Painel do cliente</text>
<text x="862" y="192" font-family="Segoe UI, Arial" font-size="9.7" font-weight="normal" fill="#5C6F69" text-anchor="start" letter-spacing="0">Rastreio em tempo real</text>
<rect x="846" y="236" width="190" height="62" rx="10" fill="#FFFFFF" stroke="#C9D9D3" stroke-width="1.4" opacity="1"/>
<rect x="846" y="236" width="5" height="62" rx="0" fill="#1E5F4F" opacity="1"/>
<text x="862" y="260" font-family="Segoe UI, Arial" font-size="12.5" font-weight="bold" fill="#16241F" text-anchor="start" letter-spacing="0">Dossiê mensal (PDF)</text>
<text x="862" y="278" font-family="Segoe UI, Arial" font-size="9.7" font-weight="normal" fill="#5C6F69" text-anchor="start" letter-spacing="0">Compliance + ESG</text>
<rect x="846" y="322" width="190" height="62" rx="10" fill="#FFFFFF" stroke="#C9D9D3" stroke-width="1.4" opacity="1"/>
<rect x="846" y="322" width="5" height="62" rx="0" fill="#1E5F4F" opacity="1"/>
<text x="862" y="346" font-family="Segoe UI, Arial" font-size="12.5" font-weight="bold" fill="#16241F" text-anchor="start" letter-spacing="0">Alertas</text>
<text x="862" y="364" font-family="Segoe UI, Arial" font-size="9.7" font-weight="normal" fill="#5C6F69" text-anchor="start" letter-spacing="0">WhatsApp / e-mail</text>
<rect x="846" y="408" width="190" height="62" rx="10" fill="#FFFFFF" stroke="#C9D9D3" stroke-width="1.4" opacity="1"/>
<rect x="846" y="408" width="5" height="62" rx="0" fill="#1E5F4F" opacity="1"/>
<text x="862" y="432" font-family="Segoe UI, Arial" font-size="12.5" font-weight="bold" fill="#16241F" text-anchor="start" letter-spacing="0">Painel de operação</text>
<text x="862" y="450" font-family="Segoe UI, Arial" font-size="9.7" font-weight="normal" fill="#5C6F69" text-anchor="start" letter-spacing="0">Visão do dono</text>
<line x1="250" y1="171" x2="288" y2="265" stroke="#1E5F4F" stroke-width="1.6" marker-end="url(#arr)"/>
<line x1="250" y1="255" x2="288" y2="265" stroke="#1E5F4F" stroke-width="1.6" marker-end="url(#arr)"/>
<line x1="250" y1="339" x2="288" y2="265" stroke="#1E5F4F" stroke-width="1.6" marker-end="url(#arr)"/>
<line x1="250" y1="423" x2="288" y2="265" stroke="#1E5F4F" stroke-width="1.6" marker-end="url(#arr)"/>
<line x1="476" y1="250" x2="514" y2="250" stroke="#2FBF93" stroke-width="2.2" marker-end="url(#arr)"/>
<line x1="514" y1="300" x2="476" y2="300" stroke="#2FBF93" stroke-width="2.2" marker-end="url(#arr)"/>
<line x1="806" y1="300" x2="842" y2="181" stroke="#1E5F4F" stroke-width="1.6" marker-end="url(#arr)"/>
<line x1="806" y1="300" x2="842" y2="267" stroke="#1E5F4F" stroke-width="1.6" marker-end="url(#arr)"/>
<line x1="806" y1="300" x2="842" y2="353" stroke="#1E5F4F" stroke-width="1.6" marker-end="url(#arr)"/>
<line x1="806" y1="300" x2="842" y2="439" stroke="#1E5F4F" stroke-width="1.6" marker-end="url(#arr)"/>
<rect x="518" y="470" width="288" height="46" rx="10" fill="#EAF2EE" stroke="#C9D9D3" stroke-width="1.4" opacity="1"/>
<rect x="518" y="470" width="5" height="46" rx="0" fill="#E08A3C" opacity="1"/>
<text x="534" y="490" font-family="Segoe UI, Arial" font-size="11.5" font-weight="bold" fill="#16241F" text-anchor="start" letter-spacing="0">TMS / Roteirização (serviço externo)</text>
<text x="534" y="506" font-family="Segoe UI, Arial" font-size="9.3" font-weight="normal" fill="#5C6F69" text-anchor="start" letter-spacing="0">VROOM / OptimoRoute — não construir do zero</text>
<rect x="24" y="560" width="1012" height="104" rx="12" fill="#0E2A26" opacity="1"/>
<text x="48" y="592" font-family="Segoe UI, Arial" font-size="14" font-weight="bold" fill="#2FBF93" text-anchor="start" letter-spacing="0">Data flywheel</text>
<text x="48" y="614" font-family="Segoe UI, Arial" font-size="11.5" font-weight="normal" fill="#D7E4DF" text-anchor="start" letter-spacing="0">Cada entrega alimenta o histórico de custódia (temperatura + rota + POD).</text>
<text x="48" y="634" font-family="Segoe UI, Arial" font-size="11.5" font-weight="normal" fill="#D7E4DF" text-anchor="start" letter-spacing="0">Quanto mais entregas, melhores as previsões da Fase 2 — e mais difícil um concorrente copiar.</text>
<text x="48" y="652" font-family="Segoe UI, Arial" font-size="11.5" font-weight="normal" fill="#9DB3AC" text-anchor="start" letter-spacing="0">O ativo de longo prazo não é o furgão: é o dado.</text>
<path d="M 880 600 a 60 26 0 1 1 120 0" fill="none" stroke="#2FBF93" stroke-width="2.2" marker-end="url(#arrm)"/>
<text x="940" y="596" font-family="Segoe UI, Arial" font-size="10" font-weight="bold" fill="#2FBF93" text-anchor="middle" letter-spacing="0">aprende</text>
</svg>